PathFileType  4	(X/Y/Z) C:\Users\antoi\Documents\MyRepositories\mobilecap\ResultsAnalysis
DataRate	CameraRate	NumFrames	NumMarkers	Units	OrigDataRate	OrigDataStartFrame	OrigNumFrames
100.0	100.0	4	51	mm	100.0	222	295
Frame#	Time	r_knee			r_shank_antsup			r_ankle			r_calc			r_5meta			r_toe			L_knee			L_shank_antsup			L_ankle			L_calc			L_5meta			L_toe			r_sh2			r_sh3			r_sh4			L_sh2			L_sh3			r_thigh1			r_thigh2			r_thigh3			r_thigh4			r_thigh5			L_thigh1			L_thigh2			L_thigh3			L_thigh4			r.ASIS			r.PSIS			L.ASIS			L.PSIS			C7			R_Shoulder			L_Shoulder			R_Sternum			L_Sternum			R_humerus			R_elbow_med			R_elbow_lat			R_forearm			R_wrist_radius			R_wrist_ulna			L_humerus			L_elbow_med			L_elbow_lat			L_forearm			L_wrist_radius			L_wrist_ulna			R_HJC			L_HJC			R_HJC_reg			L_HJC_reg			
		X1	Y1	Z1	X2	Y2	Z2	X3	Y3	Z3	X4	Y4	Z4	X5	Y5	Z5	X6	Y6	Z6	X7	Y7	Z7	X8	Y8	Z8	X9	Y9	Z9	X10	Y10	Z10	X11	Y11	Z11	X12	Y12	Z12	X13	Y13	Z13	X14	Y14	Z14	X15	Y15	Z15	X16	Y16	Z16	X17	Y17	Z17	X18	Y18	Z18	X19	Y19	Z19	X20	Y20	Z20	X21	Y21	Z21	X22	Y22	Z22	X23	Y23	Z23	X24	Y24	Z24	X25	Y25	Z25	X26	Y26	Z26	X27	Y27	Z27	X28	Y28	Z28	X29	Y29	Z29	X30	Y30	Z30	X31	Y31	Z31	X32	Y32	Z32	X33	Y33	Z33	X34	Y34	Z34	X35	Y35	Z35	X36	Y36	Z36	X37	Y37	Z37	X38	Y38	Z38	X39	Y39	Z39	X40	Y40	Z40	X41	Y41	Z41	X42	Y42	Z42	X43	Y43	Z43	X44	Y44	Z44	X45	Y45	Z45	X46	Y46	Z46	X47	Y47	Z47	X48	Y48	Z48	X49	Y49	Z49	X50	Y50	Z50	X51	Y51	Z51	

222	2.21000000	-150.86704	619.86629	-407.49246	-122.38868	490.28616	-402.64970	-239.82421	177.24428	-462.76052	-283.93882	180.42697	-536.84437	-176.86551	46.40073	-400.67113	-106.85083	55.66074	-448.76706	-90.96223	622.52045	-803.19216	-60.93505	510.45321	-787.23888	-183.98139	189.91815	-820.00452	-256.78623	192.55723	-769.80824	-107.14045	54.43488	-841.21501	-67.75570	59.02901	-773.11275	-124.05841	377.73531	-423.49228	-198.45822	486.59222	-390.42121	-202.39754	369.82756	-397.25279	-132.33311	522.33370	-844.28240	-122.90276	401.10204	-854.80199	-91.52790	872.69284	-404.96561	-72.48627	761.68244	-402.87056	-116.50584	732.29416	-359.99351	-200.35421	849.04155	-379.02747	-170.09140	735.09863	-374.52276	-37.59993	889.59286	-794.31427	-13.95300	754.12316	-787.49343	-135.11636	868.46793	-849.38930	-111.87959	732.54995	-836.56290	-129.45180	1100.34982	-453.75482	-293.37646	1174.68769	-584.51609	-63.06067	1114.13965	-711.32216	-271.61032	1185.19558	-680.90913	-44.67992	1660.86967	-554.33640	-5.05848	1653.56821	-416.24093	57.41847	1663.86231	-634.44691	56.38736	1531.96301	-499.36375	76.96173	1540.71152	-534.28627	10.75720	1682.98048	-289.65286	20.83873	1638.18749	-53.60268	-8.35669	1721.82757	-87.24445	124.62033	1712.49176	-193.76503	208.95458	1710.81942	-249.96903	221.22767	1747.98382	-234.58186	133.37793	1694.67338	-749.80142	240.76107	1642.68897	-963.41006	229.54924	1726.79257	-929.61484	276.98178	1681.52349	-775.37238	328.03604	1679.74017	-678.99174	360.22118	1710.11532	-693.63571	-211.68183	1039.44003	-518.40449	-155.46286	1039.92349	-724.25874	-198.90556	1030.73952	-515.91607	-160.40890	1049.32763	-686.41679	
223	2.22000000	-177.64987	642.32103	-420.10113	-145.91677	516.25691	-407.05749	-232.99532	188.95651	-452.63196	-270.17009	197.99456	-528.10128	-176.77224	46.59369	-402.77440	-103.97884	58.61664	-444.09463	-119.42002	649.27514	-803.61062	-82.12947	540.71898	-789.66861	-169.09136	209.54329	-820.09000	-241.22397	213.41328	-767.72610	-99.38111	68.54577	-840.07933	-57.96945	69.53855	-773.37973	-138.00480	403.01184	-419.15219	-221.83839	508.04406	-399.97399	-217.01954	390.84596	-398.48676	-156.88203	544.51672	-842.03892	-135.06170	425.52948	-855.21858	-96.49568	890.19844	-405.69040	-86.15443	778.13009	-406.26411	-134.10804	750.55338	-366.38871	-207.85933	873.84199	-384.03985	-186.64516	757.94140	-382.58885	-40.80883	911.17651	-791.99003	-27.70470	774.73494	-786.44026	-138.61299	898.19051	-848.92506	-127.29913	760.72895	-835.20860	-121.41900	1130.70250	-449.62314	-283.81876	1200.86058	-582.50272	-53.14389	1145.47350	-706.88766	-260.98605	1212.10078	-679.50509	-50.62478	1694.76116	-554.88127	-7.60755	1689.86645	-421.64430	48.96444	1700.88817	-632.85843	53.95294	1569.74181	-498.20797	74.48369	1578.84096	-533.06891	11.42036	1723.90542	-296.40081	32.87987	1682.06166	-59.72699	4.02717	1765.42272	-93.56145	137.73769	1754.87686	-200.01829	221.86545	1751.93536	-255.79962	233.91600	1789.52565	-241.20892	127.11429	1739.64241	-741.17188	244.40070	1700.09596	-952.87801	229.27562	1782.04951	-915.61961	270.59726	1731.53908	-761.26966	316.87568	1725.76891	-663.35175	348.73224	1757.83478	-673.65542	-201.18607	1067.89553	-515.44976	-142.54628	1069.06060	-720.62375	-188.48446	1058.88077	-512.75317	-148.43152	1078.59662	-682.93593	
224	2.23000000	-203.08783	666.76891	-434.52158	-170.45987	546.49134	-413.89745	-228.36579	205.99970	-444.56477	-254.11746	219.99293	-522.30514	-175.27494	55.23576	-404.93787	-98.69148	71.29989	-430.69724	-144.81855	678.38852	-803.14432	-100.07221	574.82299	-790.39650	-157.55302	234.67167	-819.06878	-228.70621	236.67914	-764.07696	-88.27784	92.23944	-838.78681	-44.19154	92.26938	-773.71726	-153.56229	433.52955	-415.52306	-245.11485	533.54149	-413.01548	-232.69715	417.52266	-400.27982	-178.44839	571.84828	-837.05480	-145.52446	455.95917	-854.58636	-102.34352	906.56251	-407.48454	-100.85830	794.42278	-412.42250	-152.43880	768.36060	-376.27443	-215.27309	897.86190	-389.70612	-203.38912	780.78710	-393.70065	-44.97212	932.29164	-790.54584	-42.85841	795.60188	-784.85215	-143.67141	927.16919	-846.82378	-144.63285	789.41297	-831.12905	-113.41252	1160.88004	-445.76772	-273.97139	1227.78107	-579.47291	-44.14015	1175.33008	-701.90118	-250.87780	1239.42451	-677.53554	-55.65779	1726.74125	-555.40534	-9.35103	1722.68880	-427.29677	39.89720	1735.11806	-631.55259	53.02602	1606.84592	-497.87665	73.03831	1616.16672	-532.97427	11.06554	1761.44524	-302.69485	42.02763	1722.41175	-65.93615	13.76591	1805.35864	-100.54101	150.27595	1795.09764	-204.65414	236.07967	1791.93880	-257.91328	247.28170	1829.76166	-243.44857	121.18855	1781.28254	-733.67769	245.89620	1754.10190	-942.18953	226.52237	1833.65126	-901.88583	265.55230	1778.54709	-748.98232	308.21386	1769.57184	-651.33942	339.93555	1802.85357	-657.15788	-191.47767	1096.63434	-511.68043	-131.22013	1097.53288	-716.38542	-178.34205	1087.53533	-508.61869	-138.39286	1107.67174	-678.19968	
225	2.24000000	-221.33374	692.20859	-446.21745	-190.46549	576.64696	-421.12182	-228.98318	226.87757	-444.76908	-241.19436	240.44086	-525.61507	-175.03443	74.39554	-402.63503	-96.31747	96.32439	-409.00895	-160.65304	707.68850	-801.48485	-112.10759	608.44369	-789.81670	-154.71924	260.98243	-815.55426	-223.23367	258.96309	-757.17153	-79.57725	121.13753	-837.76912	-32.00240	123.91370	-775.14498	-167.93413	464.46163	-414.52662	-263.59433	560.01565	-427.01262	-247.11588	445.75598	-405.46434	-193.68796	601.98310	-831.13133	-153.99167	488.89376	-854.21649	-108.84587	923.51357	-409.57358	-114.29622	811.58864	-419.31265	-168.58212	786.97901	-386.68071	-222.80942	921.08946	-394.87751	-218.17051	803.56840	-404.63734	-49.44368	954.24074	-790.25249	-56.01583	817.38433	-783.42107	-149.58934	955.20634	-844.10240	-160.10807	818.02224	-826.07054	-106.37344	1189.78817	-442.41122	-265.18078	1255.73069	-576.30817	-36.66451	1202.94768	-697.14421	-242.75617	1267.49921	-675.01639	-60.20726	1756.61111	-556.15659	-11.32729	1752.72518	-432.67752	30.98325	1766.43221	-630.08506	52.96976	1643.23233	-498.78704	72.14364	1652.82541	-534.27709	9.75843	1795.71892	-308.68258	48.89800	1758.98682	-72.01858	20.89703	1841.43770	-107.55049	161.73406	1833.72171	-207.18940	250.69868	1830.55920	-256.31196	260.73761	1868.94322	-241.53786	114.32269	1819.03198	-727.14989	244.65652	1803.76940	-932.12972	221.04927	1880.64755	-889.06650	261.93171	1821.85947	-738.40804	303.55141	1811.73530	-641.19135	334.31529	1845.91348	-644.38300	-184.10855	1125.19843	-507.84890	-123.05911	1125.09399	-712.32070	-169.97270	1115.88269	-504.12380	-131.56866	1136.04579	-673.16696	
